<mxfile host="app.diagrams.net" modified="2024-07-15T13:41:36.248Z" agent="Mozilla/5.0 (Windows NT 10.0; Win64; x64) AppleWebKit/537.36 (KHTML, like Gecko) Chrome/126.0.0.0 Safari/537.36" etag="b7oslsWL4pgzqmNLdVlK" version="24.6.4" type="github">
  <diagram name="Page-1" id="gAjcTgvdmBTye9KjYkTd">
    <mxGraphModel dx="2208" dy="724" grid="1" gridSize="10" guides="1" tooltips="1" connect="1" arrows="1" fold="1" page="1" pageScale="1" pageWidth="850" pageHeight="1100" math="0" shadow="0">
      <root>
        <mxCell id="0" />
        <mxCell id="1" parent="0" />
        <mxCell id="SeS5hkv6XzvQqbrjBPqz-15" value="" style="edgeStyle=orthogonalEdgeStyle;rounded=0;orthogonalLoop=1;jettySize=auto;html=1;" parent="1" source="SeS5hkv6XzvQqbrjBPqz-1" target="SeS5hkv6XzvQqbrjBPqz-9" edge="1">
          <mxGeometry relative="1" as="geometry" />
        </mxCell>
        <mxCell id="JbjCugSpGSqmciC1cfTi-11" value="" style="edgeStyle=orthogonalEdgeStyle;rounded=0;orthogonalLoop=1;jettySize=auto;html=1;" edge="1" parent="1" source="SeS5hkv6XzvQqbrjBPqz-1" target="JbjCugSpGSqmciC1cfTi-10">
          <mxGeometry relative="1" as="geometry" />
        </mxCell>
        <mxCell id="SeS5hkv6XzvQqbrjBPqz-1" value="World App" style="whiteSpace=wrap;html=1;aspect=fixed;" parent="1" vertex="1">
          <mxGeometry x="-405" y="332.5" width="110" height="110" as="geometry" />
        </mxCell>
        <mxCell id="SeS5hkv6XzvQqbrjBPqz-5" value="" style="edgeStyle=orthogonalEdgeStyle;rounded=0;orthogonalLoop=1;jettySize=auto;html=1;" parent="1" source="SeS5hkv6XzvQqbrjBPqz-2" target="SeS5hkv6XzvQqbrjBPqz-3" edge="1">
          <mxGeometry relative="1" as="geometry" />
        </mxCell>
        <mxCell id="SeS5hkv6XzvQqbrjBPqz-14" value="" style="edgeStyle=orthogonalEdgeStyle;rounded=0;orthogonalLoop=1;jettySize=auto;html=1;" parent="1" source="SeS5hkv6XzvQqbrjBPqz-2" target="SeS5hkv6XzvQqbrjBPqz-13" edge="1">
          <mxGeometry relative="1" as="geometry" />
        </mxCell>
        <mxCell id="SeS5hkv6XzvQqbrjBPqz-27" value="" style="edgeStyle=orthogonalEdgeStyle;rounded=0;orthogonalLoop=1;jettySize=auto;html=1;" parent="1" source="SeS5hkv6XzvQqbrjBPqz-2" target="SeS5hkv6XzvQqbrjBPqz-26" edge="1">
          <mxGeometry relative="1" as="geometry" />
        </mxCell>
        <mxCell id="SeS5hkv6XzvQqbrjBPqz-2" value="Kresus NFT&amp;nbsp;&lt;div&gt;Mini App&lt;/div&gt;" style="rounded=1;whiteSpace=wrap;html=1;" parent="1" vertex="1">
          <mxGeometry x="-64" y="348" width="120" height="80" as="geometry" />
        </mxCell>
        <mxCell id="SeS5hkv6XzvQqbrjBPqz-4" value="" style="edgeStyle=orthogonalEdgeStyle;rounded=0;orthogonalLoop=1;jettySize=auto;html=1;" parent="1" source="SeS5hkv6XzvQqbrjBPqz-3" target="SeS5hkv6XzvQqbrjBPqz-1" edge="1">
          <mxGeometry relative="1" as="geometry" />
        </mxCell>
        <mxCell id="SeS5hkv6XzvQqbrjBPqz-7" value="" style="edgeStyle=orthogonalEdgeStyle;rounded=0;orthogonalLoop=1;jettySize=auto;html=1;" parent="1" source="SeS5hkv6XzvQqbrjBPqz-3" target="SeS5hkv6XzvQqbrjBPqz-6" edge="1">
          <mxGeometry relative="1" as="geometry" />
        </mxCell>
        <mxCell id="SeS5hkv6XzvQqbrjBPqz-3" value="Wallet Auth&lt;br&gt;Command" style="rounded=0;whiteSpace=wrap;html=1;" parent="1" vertex="1">
          <mxGeometry x="-225" y="365.5" width="120" height="45" as="geometry" />
        </mxCell>
        <mxCell id="SeS5hkv6XzvQqbrjBPqz-23" value="" style="edgeStyle=orthogonalEdgeStyle;rounded=0;orthogonalLoop=1;jettySize=auto;html=1;" parent="1" source="SeS5hkv6XzvQqbrjBPqz-6" target="SeS5hkv6XzvQqbrjBPqz-13" edge="1">
          <mxGeometry relative="1" as="geometry" />
        </mxCell>
        <mxCell id="SeS5hkv6XzvQqbrjBPqz-6" value="Verify" style="rhombus;whiteSpace=wrap;html=1;rounded=0;" parent="1" vertex="1">
          <mxGeometry x="-205" y="210" width="80" height="80" as="geometry" />
        </mxCell>
        <mxCell id="SeS5hkv6XzvQqbrjBPqz-16" style="edgeStyle=orthogonalEdgeStyle;rounded=0;orthogonalLoop=1;jettySize=auto;html=1;entryX=0;entryY=0.5;entryDx=0;entryDy=0;" parent="1" source="SeS5hkv6XzvQqbrjBPqz-9" target="SeS5hkv6XzvQqbrjBPqz-6" edge="1">
          <mxGeometry relative="1" as="geometry" />
        </mxCell>
        <mxCell id="SeS5hkv6XzvQqbrjBPqz-9" value="EIP 191&lt;br&gt;Signature" style="rounded=0;whiteSpace=wrap;html=1;" parent="1" vertex="1">
          <mxGeometry x="-410" y="227.5" width="120" height="45" as="geometry" />
        </mxCell>
        <mxCell id="SeS5hkv6XzvQqbrjBPqz-18" value="" style="edgeStyle=orthogonalEdgeStyle;rounded=0;orthogonalLoop=1;jettySize=auto;html=1;" parent="1" source="SeS5hkv6XzvQqbrjBPqz-13" target="SeS5hkv6XzvQqbrjBPqz-17" edge="1">
          <mxGeometry relative="1" as="geometry" />
        </mxCell>
        <mxCell id="SeS5hkv6XzvQqbrjBPqz-13" value="Get User Info" style="rounded=0;whiteSpace=wrap;html=1;" parent="1" vertex="1">
          <mxGeometry x="-64" y="227.5" width="120" height="45" as="geometry" />
        </mxCell>
        <mxCell id="SeS5hkv6XzvQqbrjBPqz-17" value="Email" style="html=1;whiteSpace=wrap;" parent="1" vertex="1">
          <mxGeometry x="311.5" y="225.5" width="75" height="50" as="geometry" />
        </mxCell>
        <mxCell id="SeS5hkv6XzvQqbrjBPqz-19" value="Extract Email" style="text;html=1;align=center;verticalAlign=middle;resizable=0;points=[];autosize=1;strokeColor=none;fillColor=none;" parent="1" vertex="1">
          <mxGeometry x="-4" y="297" width="90" height="30" as="geometry" />
        </mxCell>
        <mxCell id="SeS5hkv6XzvQqbrjBPqz-21" value="" style="edgeStyle=orthogonalEdgeStyle;rounded=0;orthogonalLoop=1;jettySize=auto;html=1;" parent="1" source="SeS5hkv6XzvQqbrjBPqz-20" target="SeS5hkv6XzvQqbrjBPqz-2" edge="1">
          <mxGeometry relative="1" as="geometry" />
        </mxCell>
        <mxCell id="SeS5hkv6XzvQqbrjBPqz-25" style="edgeStyle=orthogonalEdgeStyle;rounded=0;orthogonalLoop=1;jettySize=auto;html=1;entryX=0.5;entryY=1;entryDx=0;entryDy=0;startArrow=classic;startFill=1;" parent="1" source="SeS5hkv6XzvQqbrjBPqz-20" target="SeS5hkv6XzvQqbrjBPqz-17" edge="1">
          <mxGeometry relative="1" as="geometry" />
        </mxCell>
        <mxCell id="SeS5hkv6XzvQqbrjBPqz-34" value="" style="edgeStyle=orthogonalEdgeStyle;rounded=0;orthogonalLoop=1;jettySize=auto;html=1;" parent="1" source="SeS5hkv6XzvQqbrjBPqz-20" target="SeS5hkv6XzvQqbrjBPqz-33" edge="1">
          <mxGeometry relative="1" as="geometry" />
        </mxCell>
        <mxCell id="SeS5hkv6XzvQqbrjBPqz-20" value="Kresus Provider" style="rounded=1;whiteSpace=wrap;html=1;" parent="1" vertex="1">
          <mxGeometry x="289" y="348" width="120" height="80" as="geometry" />
        </mxCell>
        <mxCell id="SeS5hkv6XzvQqbrjBPqz-24" value="Verified" style="text;html=1;align=center;verticalAlign=middle;resizable=0;points=[];autosize=1;strokeColor=none;fillColor=none;" parent="1" vertex="1">
          <mxGeometry x="-128" y="223" width="60" height="30" as="geometry" />
        </mxCell>
        <mxCell id="JbjCugSpGSqmciC1cfTi-5" value="" style="edgeStyle=orthogonalEdgeStyle;rounded=0;orthogonalLoop=1;jettySize=auto;html=1;" edge="1" parent="1" source="SeS5hkv6XzvQqbrjBPqz-26" target="JbjCugSpGSqmciC1cfTi-4">
          <mxGeometry relative="1" as="geometry" />
        </mxCell>
        <mxCell id="JbjCugSpGSqmciC1cfTi-33" value="" style="edgeStyle=orthogonalEdgeStyle;rounded=0;orthogonalLoop=1;jettySize=auto;html=1;" edge="1" parent="1" source="SeS5hkv6XzvQqbrjBPqz-26" target="JbjCugSpGSqmciC1cfTi-13">
          <mxGeometry relative="1" as="geometry" />
        </mxCell>
        <mxCell id="SeS5hkv6XzvQqbrjBPqz-26" value="Email&lt;br&gt;Exist" style="rhombus;whiteSpace=wrap;html=1;rounded=1;" parent="1" vertex="1">
          <mxGeometry x="-44" y="453" width="80" height="80" as="geometry" />
        </mxCell>
        <mxCell id="JbjCugSpGSqmciC1cfTi-36" style="edgeStyle=orthogonalEdgeStyle;rounded=0;orthogonalLoop=1;jettySize=auto;html=1;entryX=0.5;entryY=1;entryDx=0;entryDy=0;" edge="1" parent="1" source="SeS5hkv6XzvQqbrjBPqz-30" target="SeS5hkv6XzvQqbrjBPqz-35">
          <mxGeometry relative="1" as="geometry" />
        </mxCell>
        <mxCell id="SeS5hkv6XzvQqbrjBPqz-30" value="Process TX payload" style="rounded=1;whiteSpace=wrap;html=1;" parent="1" vertex="1">
          <mxGeometry x="289" y="815" width="120" height="60" as="geometry" />
        </mxCell>
        <mxCell id="SeS5hkv6XzvQqbrjBPqz-33" value="Kresus Bundler" style="rounded=1;whiteSpace=wrap;html=1;" parent="1" vertex="1">
          <mxGeometry x="441" y="347.5" width="120" height="80" as="geometry" />
        </mxCell>
        <mxCell id="SeS5hkv6XzvQqbrjBPqz-35" value="Sign TX payload" style="rounded=1;whiteSpace=wrap;html=1;" parent="1" vertex="1">
          <mxGeometry x="289" y="462.5" width="120" height="60" as="geometry" />
        </mxCell>
        <mxCell id="SeS5hkv6XzvQqbrjBPqz-38" value="" style="edgeStyle=orthogonalEdgeStyle;rounded=0;orthogonalLoop=1;jettySize=auto;html=1;" parent="1" source="SeS5hkv6XzvQqbrjBPqz-36" target="SeS5hkv6XzvQqbrjBPqz-33" edge="1">
          <mxGeometry relative="1" as="geometry" />
        </mxCell>
        <mxCell id="SeS5hkv6XzvQqbrjBPqz-36" value="Kresus Paymaster" style="rounded=0;whiteSpace=wrap;html=1;" parent="1" vertex="1">
          <mxGeometry x="441" y="467.5" width="120" height="45" as="geometry" />
        </mxCell>
        <mxCell id="JbjCugSpGSqmciC1cfTi-2" style="edgeStyle=orthogonalEdgeStyle;rounded=0;orthogonalLoop=1;jettySize=auto;html=1;" edge="1" parent="1" source="JbjCugSpGSqmciC1cfTi-1" target="SeS5hkv6XzvQqbrjBPqz-3">
          <mxGeometry relative="1" as="geometry" />
        </mxCell>
        <mxCell id="JbjCugSpGSqmciC1cfTi-1" value="SIWE" style="rounded=0;whiteSpace=wrap;html=1;" vertex="1" parent="1">
          <mxGeometry x="-225" y="477.5" width="120" height="45" as="geometry" />
        </mxCell>
        <mxCell id="JbjCugSpGSqmciC1cfTi-6" style="edgeStyle=orthogonalEdgeStyle;rounded=0;orthogonalLoop=1;jettySize=auto;html=1;entryX=0;entryY=0.5;entryDx=0;entryDy=0;" edge="1" parent="1" source="JbjCugSpGSqmciC1cfTi-4" target="SeS5hkv6XzvQqbrjBPqz-20">
          <mxGeometry relative="1" as="geometry">
            <Array as="points">
              <mxPoint x="211" y="388" />
            </Array>
          </mxGeometry>
        </mxCell>
        <mxCell id="JbjCugSpGSqmciC1cfTi-37" style="edgeStyle=orthogonalEdgeStyle;rounded=0;orthogonalLoop=1;jettySize=auto;html=1;entryX=0;entryY=0.5;entryDx=0;entryDy=0;" edge="1" parent="1" source="JbjCugSpGSqmciC1cfTi-4" target="SeS5hkv6XzvQqbrjBPqz-30">
          <mxGeometry relative="1" as="geometry">
            <Array as="points">
              <mxPoint x="211" y="845" />
            </Array>
          </mxGeometry>
        </mxCell>
        <mxCell id="JbjCugSpGSqmciC1cfTi-4" value="Deploy SW" style="whiteSpace=wrap;html=1;rounded=1;" vertex="1" parent="1">
          <mxGeometry x="151" y="462.5" width="120" height="60" as="geometry" />
        </mxCell>
        <mxCell id="JbjCugSpGSqmciC1cfTi-7" value="No" style="text;html=1;align=center;verticalAlign=middle;resizable=0;points=[];autosize=1;strokeColor=none;fillColor=none;" vertex="1" parent="1">
          <mxGeometry x="21" y="462.5" width="40" height="30" as="geometry" />
        </mxCell>
        <mxCell id="JbjCugSpGSqmciC1cfTi-8" value="Yes" style="text;html=1;align=center;verticalAlign=middle;resizable=0;points=[];autosize=1;strokeColor=none;fillColor=none;" vertex="1" parent="1">
          <mxGeometry x="-4" y="550" width="40" height="30" as="geometry" />
        </mxCell>
        <mxCell id="JbjCugSpGSqmciC1cfTi-10" value="Contracts" style="whiteSpace=wrap;html=1;" vertex="1" parent="1">
          <mxGeometry x="-600" y="357.5" width="120" height="60" as="geometry" />
        </mxCell>
        <mxCell id="JbjCugSpGSqmciC1cfTi-26" style="edgeStyle=orthogonalEdgeStyle;rounded=0;orthogonalLoop=1;jettySize=auto;html=1;" edge="1" parent="1" source="JbjCugSpGSqmciC1cfTi-13" target="JbjCugSpGSqmciC1cfTi-19">
          <mxGeometry relative="1" as="geometry" />
        </mxCell>
        <mxCell id="JbjCugSpGSqmciC1cfTi-28" style="edgeStyle=orthogonalEdgeStyle;rounded=0;orthogonalLoop=1;jettySize=auto;html=1;" edge="1" parent="1" source="JbjCugSpGSqmciC1cfTi-13" target="JbjCugSpGSqmciC1cfTi-18">
          <mxGeometry relative="1" as="geometry" />
        </mxCell>
        <mxCell id="JbjCugSpGSqmciC1cfTi-13" value="Cloud incognito actions&lt;br&gt;( MINT Once )" style="rounded=1;whiteSpace=wrap;html=1;" vertex="1" parent="1">
          <mxGeometry x="-64" y="605" width="120" height="60" as="geometry" />
        </mxCell>
        <mxCell id="JbjCugSpGSqmciC1cfTi-30" style="edgeStyle=orthogonalEdgeStyle;rounded=0;orthogonalLoop=1;jettySize=auto;html=1;entryX=0.5;entryY=0;entryDx=0;entryDy=0;" edge="1" parent="1" source="JbjCugSpGSqmciC1cfTi-18" target="JbjCugSpGSqmciC1cfTi-29">
          <mxGeometry relative="1" as="geometry">
            <Array as="points">
              <mxPoint x="126" y="795" />
              <mxPoint x="-4" y="795" />
            </Array>
          </mxGeometry>
        </mxCell>
        <mxCell id="JbjCugSpGSqmciC1cfTi-18" value="nullifier_hash" style="rounded=1;whiteSpace=wrap;html=1;" vertex="1" parent="1">
          <mxGeometry x="66" y="710" width="120" height="60" as="geometry" />
        </mxCell>
        <mxCell id="JbjCugSpGSqmciC1cfTi-32" style="edgeStyle=orthogonalEdgeStyle;rounded=0;orthogonalLoop=1;jettySize=auto;html=1;entryX=0.5;entryY=0;entryDx=0;entryDy=0;" edge="1" parent="1" source="JbjCugSpGSqmciC1cfTi-19" target="JbjCugSpGSqmciC1cfTi-29">
          <mxGeometry relative="1" as="geometry">
            <Array as="points">
              <mxPoint x="-134" y="795" />
              <mxPoint x="-4" y="795" />
            </Array>
          </mxGeometry>
        </mxCell>
        <mxCell id="JbjCugSpGSqmciC1cfTi-19" value="Proof" style="rounded=1;whiteSpace=wrap;html=1;" vertex="1" parent="1">
          <mxGeometry x="-194" y="710" width="120" height="60" as="geometry" />
        </mxCell>
        <mxCell id="JbjCugSpGSqmciC1cfTi-31" value="" style="edgeStyle=orthogonalEdgeStyle;rounded=0;orthogonalLoop=1;jettySize=auto;html=1;" edge="1" parent="1" source="JbjCugSpGSqmciC1cfTi-16" target="JbjCugSpGSqmciC1cfTi-29">
          <mxGeometry relative="1" as="geometry" />
        </mxCell>
        <mxCell id="JbjCugSpGSqmciC1cfTi-16" value="merkle root" style="rounded=1;whiteSpace=wrap;html=1;" vertex="1" parent="1">
          <mxGeometry x="-64" y="710" width="120" height="60" as="geometry" />
        </mxCell>
        <mxCell id="JbjCugSpGSqmciC1cfTi-27" style="edgeStyle=orthogonalEdgeStyle;rounded=0;orthogonalLoop=1;jettySize=auto;html=1;entryX=0.505;entryY=0.098;entryDx=0;entryDy=0;entryPerimeter=0;" edge="1" parent="1" source="JbjCugSpGSqmciC1cfTi-13" target="JbjCugSpGSqmciC1cfTi-16">
          <mxGeometry relative="1" as="geometry" />
        </mxCell>
        <mxCell id="JbjCugSpGSqmciC1cfTi-34" style="edgeStyle=orthogonalEdgeStyle;rounded=0;orthogonalLoop=1;jettySize=auto;html=1;" edge="1" parent="1" source="JbjCugSpGSqmciC1cfTi-29" target="SeS5hkv6XzvQqbrjBPqz-30">
          <mxGeometry relative="1" as="geometry" />
        </mxCell>
        <mxCell id="JbjCugSpGSqmciC1cfTi-29" value="Mini app backend verification" style="rounded=1;whiteSpace=wrap;html=1;" vertex="1" parent="1">
          <mxGeometry x="-64" y="815" width="120" height="60" as="geometry" />
        </mxCell>
        <mxCell id="JbjCugSpGSqmciC1cfTi-39" style="edgeStyle=orthogonalEdgeStyle;rounded=0;orthogonalLoop=1;jettySize=auto;html=1;" edge="1" parent="1" source="JbjCugSpGSqmciC1cfTi-38" target="JbjCugSpGSqmciC1cfTi-13">
          <mxGeometry relative="1" as="geometry" />
        </mxCell>
        <mxCell id="JbjCugSpGSqmciC1cfTi-38" value="World Coin&lt;br&gt;IDKit" style="whiteSpace=wrap;html=1;aspect=fixed;" vertex="1" parent="1">
          <mxGeometry x="-405" y="580" width="110" height="110" as="geometry" />
        </mxCell>
      </root>
    </mxGraphModel>
  </diagram>
</mxfile>
